<?xml version="1.0" encoding="UTF-8"?>
<svg version="1.1" xmlns="http://www.w3.org/2000/svg" width="475" height="85">
<path d="M0 0 C156.75 0 313.5 0 475 0 C475 28.05 475 56.1 475 85 C318.25 85 161.5 85 0 85 C0 56.95 0 28.9 0 0 Z " fill="#1E293B" transform="translate(0,0)"/>
<path d="M0 0 C2.65683189 1.49748707 4.84652751 2.84652751 7 5 C7.33 3.68 7.66 2.36 8 1 C13.94 1 19.88 1 26 1 C26.09936145 7.38626642 26.17170145 13.77207635 26.21972656 20.15893555 C26.23976081 22.32861171 26.26699612 24.49823443 26.30175781 26.66772461 C26.350637 29.798149 26.37305125 32.92785548 26.390625 36.05859375 C26.41127014 37.01833603 26.43191528 37.97807831 26.45318604 38.96690369 C26.45545278 45.87144536 25.31593754 52.26722364 20.58770752 57.58982849 C15.06400787 62.47056278 9.85842639 63.36658175 2.6875 63.3125 C1.54800903 63.30512817 1.54800903 63.30512817 0.38549805 63.29760742 C-8.09231362 63.11967466 -13.85412747 60.99954224 -20 55 C-22.05326875 51.92009688 -22 50.90161828 -22 47 C-18.37 46.34 -14.74 45.68 -11 45 C-11.886875 44.54625 -12.77375 44.0925 -13.6875 43.625 C-18.28878554 40.45546839 -20.43343057 36.28385281 -22 31 C-23.06834155 22.48773024 -22.99236656 14.51941223 -18.5 6.92578125 C-13.90113189 1.02150526 -7.36560552 -1.05620004 0 0 Z " fill="#506FFA" transform="translate(163,15)"/>
<path d="M0 0 C8.1984375 -0.0928125 8.1984375 -0.0928125 16.5625 -0.1875 C19.12946655 -0.22846802 19.12946655 -0.22846802 21.74829102 -0.27026367 C23.12515561 -0.27903653 24.50202807 -0.28667857 25.87890625 -0.29296875 C26.92637024 -0.3159906 26.92637024 -0.3159906 27.99499512 -0.33947754 C33.61473405 -0.3424327 38.4372351 0.74177891 42.7421875 4.53515625 C46.39747875 9.46349722 47.87857195 12.78063544 47 19 C45.0625 22.375 45.0625 22.375 43 25 C42.67 25.66 42.34 26.32 42 27 C42.49371094 27.39832031 42.98742187 27.79664062 43.49609375 28.20703125 C44.13675781 28.73683594 44.77742188 29.26664063 45.4375 29.8125 C46.07558594 30.33457031 46.71367187 30.85664062 47.37109375 31.39453125 C49.82747603 33.8155699 49.99378651 35.93413704 50.3125 39.3125 C49.85225749 44.74336165 47.51484683 47.52609497 43.6875 51.25 C38.14305568 54.86033584 32.34072902 55.28999395 25.87890625 55.1953125 C25.2175769 55.19329834 24.55624756 55.19128418 23.87487793 55.18920898 C21.43734664 55.17885497 18.99991532 55.15093361 16.5625 55.125 C11.096875 55.08375 5.63125 55.0425 0 55 C0 36.85 0 18.7 0 0 Z " fill="#FAFAFA" transform="translate(262,5)"/>
<path d="M0 0 C5.28 -0.061875 10.56 -0.12375 16 -0.1875 C17.65 -0.21481201 19.3 -0.24212402 21 -0.27026367 C29.77432089 -0.35590542 36.9367233 -0.38606391 44 5.5 C47.17680898 9.78225265 46.72405726 14.93930188 46 20 C44.62747293 23.11937969 44.020457 24.4897715 41 26 C41.49371094 26.40992187 41.98742188 26.81984375 42.49609375 27.2421875 C43.13675781 27.78101562 43.77742188 28.31984375 44.4375 28.875 C45.07558594 29.40867187 45.71367188 29.94234375 46.37109375 30.4921875 C48.40508768 32.37497325 48.94898695 33.44572358 49.203125 36.20703125 C49.36467823 45.18669801 49.36467823 45.18669801 46 49 C39.65035699 53.93861123 33.90113842 55.31058236 25.9765625 55.1953125 C25.31422607 55.19329834 24.65188965 55.19128418 23.96948242 55.18920898 C21.52125005 55.17883155 19.07311726 55.15090964 16.625 55.125 C8.395625 55.063125 8.395625 55.063125 0 55 C0 36.85 0 18.7 0 0 Z " fill="#516FFB" transform="translate(8,5)"/>
<path d="M0 0 C4.87987385 4.07047169 7.66407911 9.62238447 8.28515625 15.8671875 C8.52222314 24.13360675 7.35889651 30.29378814 1.62109375 36.64453125 C-4.50652449 41.76810602 -12.06402577 42.70914378 -19.80859375 42.453125 C-26.05957147 41.56559328 -30.93905212 39.00810306 -35.4375 34.625 C-40.0143755 26.93584915 -41.62753265 19.83816044 -39.49609375 10.8828125 C-37.04762463 4.58674904 -33.49807436 0.39305079 -27.4375 -2.375 C-18.12665541 -5.66769096 -8.54184765 -5.07172204 0 0 Z " fill="#F9F9FA" transform="translate(410,19)"/>
<path d="M0 0 C5.5544211 3.63173687 8.29231951 7.68444422 10 14 C11.21234858 22.40712755 9.81542437 28.98969988 5 36 C-0.32383703 41.61161201 -6.89477819 43.18319061 -14.375 43.5 C-22.05899759 43.31258542 -27.92254444 40.99854644 -33.4375 35.625 C-37.7727675 28.3417506 -39.16056613 22.53612661 -38 14 C-36.06006852 8.16423906 -33.43832832 3.16181879 -28 0 C-19.17281226 -4.3361624 -8.77032669 -4.85710918 0 0 Z " fill="#506FFA" transform="translate(126,18)"/>
<path d="M0 0 C4.73442248 4.14507528 7.67438421 8.69732554 8.30078125 15.05078125 C8.35164073 29.20667018 8.35164073 29.20667018 3.48828125 34.7109375 C-3.4406959 41.09493892 -9.56664175 42.52328804 -18.83984375 42.2890625 C-25.20998568 41.70637956 -30.41354979 39.58645021 -35 35 C-38.67757396 29.59984492 -39.71745723 25.6189221 -39.625 19.125 C-39.61734619 18.3314209 -39.60969238 17.5378418 -39.60180664 16.72021484 C-39.3890583 11.10804046 -38.45533889 7.0578554 -34.78515625 2.6328125 C-25.29183218 -6.05035919 -10.87818736 -6.6198222 0 0 Z " fill="#FAFAFB" transform="translate(357,19)"/>
<path d="M0 0 C5.94 0 11.88 0 18 0 C18.33 7.59 18.66 15.18 19 23 C20.44375 21.39125 21.8875 19.7825 23.375 18.125 C27.75 13.25 27.75 13.25 30 11 C32.9093558 10.85482256 35.719946 10.81369204 38.625 10.875 C39.42679687 10.88402344 40.22859375 10.89304687 41.0546875 10.90234375 C43.03658523 10.92593777 45.01832981 10.96180935 47 11 C45.08110048 15.99891659 40.82774176 19.46315379 37.08007812 23.13476562 C36.54447266 23.68712891 36.00886719 24.23949219 35.45703125 24.80859375 C34.96178955 25.30157959 34.46654785 25.79456543 33.95629883 26.30249023 C32.78435008 28.02276686 32.78435008 28.02276686 33.14892578 30.3840332 C34.11073841 33.34037926 35.40184272 35.48409952 37.16015625 38.046875 C38.1027832 39.43712891 38.1027832 39.43712891 39.06445312 40.85546875 C39.72380859 41.81066406 40.38316406 42.76585937 41.0625 43.75 C42.36769317 45.66022441 43.67117845 47.57161729 44.97265625 49.484375 C45.55281494 50.32709961 46.13297363 51.16982422 46.73071289 52.03808594 C48 54 48 54 48 55 C31.56072224 56.78976008 31.56072224 56.78976008 27.31494141 53.82226562 C24.43358082 50.6518365 22.62012943 46.93042229 21 43 C20.01 43.495 20.01 43.495 19 44 C18.5316735 46.58605332 18.5316735 46.58605332 18.375 49.5625 C18.25125 51.356875 18.1275 53.15125 18 55 C12.06 55 6.12 55 0 55 C0 36.85 0 18.7 0 0 Z " fill="#FBFCFC" transform="translate(424,5)"/>
<path d="M0 0 C0.78375 0.5775 1.5675 1.155 2.375 1.75 C-4.11403444 10.0898587 -4.11403444 10.0898587 -8.625 10.75 C-10.2441402 10.02303909 -11.8606669 9.28764692 -13.4453125 8.48828125 C-17.96646907 6.95692177 -22.91085109 7.54099832 -27.625 7.75 C-27.295 8.41 -26.965 9.07 -26.625 9.75 C-24.80499694 10.16838789 -24.80499694 10.16838789 -22.6171875 10.27734375 C-21.79476562 10.34759766 -20.97234375 10.41785156 -20.125 10.49023438 C-18.39859647 10.61997155 -16.67203563 10.74763503 -14.9453125 10.87304688 C-8.50067509 11.42844653 -3.27850568 12.44563981 1.75 16.8125 C4.44166937 20.02179809 4.71714909 22.45791879 4.65625 26.65234375 C4.06353682 31.07299625 1.53575395 33.84719138 -1.875 36.5 C-11.37266934 40.81712243 -21.39838907 41.02991612 -31.25390625 37.75 C-34.99328049 36.17293277 -38.31771305 34.08727262 -41.625 31.75 C-35.625 24.25 -35.625 24.25 -32.625 22.75 C-30.0625 23.5 -30.0625 23.5 -27.625 24.75 C-24.20267028 25.89077657 -21.53826783 25.84815117 -17.9375 25.8125 C-16.75800781 25.80347656 -15.57851562 25.79445312 -14.36328125 25.78515625 C-13.45964844 25.77355469 -12.55601562 25.76195312 -11.625 25.75 C-11.625 25.09 -11.625 24.43 -11.625 23.75 C-12.22973145 23.70512451 -12.83446289 23.66024902 -13.45751953 23.61401367 C-16.22284804 23.40143864 -18.98624799 23.16964055 -21.75 22.9375 C-22.70132813 22.86724609 -23.65265625 22.79699219 -24.6328125 22.72460938 C-31.25031092 22.15017375 -36.29532164 21.33153548 -40.9375 16.1875 C-43.74370637 12.1340908 -44.03975045 9.72700537 -43.625 4.75 C-40.96853934 -0.8949789 -37.2467989 -3.10888519 -31.625 -5.25 C-20.58590181 -8.77311644 -9.42724259 -6.13866959 0 0 Z " fill="#506FFA" transform="translate(237.625,21.25)"/>
<path d="M0 0 C5.94 0 11.88 0 18 0 C18 18.15 18 36.3 18 55 C12.06 55 6.12 55 0 55 C0 36.85 0 18.7 0 0 Z " fill="#516FFC" transform="translate(64,5)"/>
<path d="M0 0 C2.15942819 3.23914229 2.27232978 4.24859733 2.25 8 C2.25515625 8.86625 2.2603125 9.7325 2.265625 10.625 C2 13 2 13 0 16 C-5.97503374 16.76045884 -5.97503374 16.76045884 -8.9375 14.5625 C-10.49559391 10.80474409 -10.75236814 7.00525391 -10 3 C-7.21202272 -0.75916456 -4.49755791 -0.49064268 0 0 Z " fill="#252F41" transform="translate(345,30)"/>
<path d="M0 0 C3.4375 -0.4375 3.4375 -0.4375 7 0 C9.28677385 1.77040556 9.86400707 3.06528805 10.27734375 5.90625 C10.42852435 9.14756204 10.21395458 11.49657747 8.9375 14.5 C7 16 7 16 3.4375 16.4375 C2.303125 16.293125 1.16875 16.14875 0 16 C-2.15942819 12.76085771 -2.27232978 11.75140267 -2.25 8 C-2.25515625 7.13375 -2.2603125 6.2675 -2.265625 5.375 C-2 3 -2 3 0 0 Z " fill="#202B42" transform="translate(161,30)"/>
<path d="M0 0 C2.13022317 1.59516712 2.90297396 2.48347903 3.3984375 5.12109375 C3.36301093 8.62241935 3.29570238 11.32645568 1.875 14.5625 C0 16 0 16 -3 16.5 C-6 16 -6 16 -7.875 14.5625 C-9.51918919 10.81740239 -9.75595176 7.0243314 -9 3 C-6.37065344 -0.45197837 -4.24486091 -0.53060761 0 0 Z " fill="#202B3D" transform="translate(397,30)"/>
<path d="M0 0 C2.13022317 1.59516712 2.90297396 2.48347903 3.3984375 5.12109375 C3.36301093 8.62241935 3.29570238 11.32645568 1.875 14.5625 C0 16 0 16 -3 16.5 C-6 16 -6 16 -7.875 14.5625 C-9.51918919 10.81740239 -9.75595176 7.0243314 -9 3 C-6.37065344 -0.45197837 -4.24486091 -0.53060761 0 0 Z " fill="#1E293C" transform="translate(115,30)"/>
<path d="M0 0 C2.14576637 -0.02685938 4.29162645 -0.04633088 6.4375 -0.0625 C7.63246094 -0.07410156 8.82742188 -0.08570313 10.05859375 -0.09765625 C13 0 13 0 14 1 C14.04063832 2.66617115 14.042721 4.33388095 14 6 C11.23547967 7.38226016 8.9538637 7.09525387 5.875 7.0625 C4.77929688 7.05347656 3.68359375 7.04445313 2.5546875 7.03515625 C1.29011719 7.01775391 1.29011719 7.01775391 0 7 C0 4.69 0 2.38 0 0 Z " fill="#202B3D" transform="translate(280,39)"/>
<path d="M0 0 C4.29 0 8.58 0 13 0 C13.33 1.65 13.66 3.3 14 5 C12 7 12 7 9.1796875 7.1953125 C8.08914062 7.17210937 6.99859375 7.14890625 5.875 7.125 C4.77929688 7.10695313 3.68359375 7.08890625 2.5546875 7.0703125 C1.71164063 7.04710937 0.86859375 7.02390625 0 7 C0 4.69 0 2.38 0 0 Z " fill="#1E2A3D" transform="translate(26,39)"/>
<path d="M0 0 C0.33 0 0.66 0 1 0 C1.48372093 7.25581395 1.48372093 7.25581395 -0.625 10.5 C-3.72140596 12.45562482 -5.39853135 12.60024477 -9 12 C-11.375 10.0625 -11.375 10.0625 -13 8 C-13 7.67 -13 7.34 -13 7 C-11.783125 6.773125 -10.56625 6.54625 -9.3125 6.3125 C-5.03211642 5.27276144 -2.90163528 3.34127699 0 0 Z " fill="#212E49" transform="translate(170,54)"/>
<path d="M0 0 C1.62490954 -0.02698189 3.24994633 -0.04638757 4.875 -0.0625 C5.77992188 -0.07410156 6.68484375 -0.08570312 7.6171875 -0.09765625 C10 0 10 0 12 1 C12 2.65 12 4.3 12 6 C9.47524538 7.26237731 7.68799534 7.09856404 4.875 7.0625 C3.96492188 7.05347656 3.05484375 7.04445313 2.1171875 7.03515625 C1.41851562 7.02355469 0.71984375 7.01195312 0 7 C0 4.69 0 2.38 0 0 Z " fill="#263042" transform="translate(280,19)"/>
<path d="M0 0 C1.62463842 -0.05395478 3.24978541 -0.09277195 4.875 -0.125 C5.77992187 -0.14820312 6.68484375 -0.17140625 7.6171875 -0.1953125 C10 0 10 0 12 2 C11.46428571 5.53571429 11.46428571 5.53571429 10 7 C8.31391034 7.07205511 6.62499341 7.08386068 4.9375 7.0625 C4.01839844 7.05347656 3.09929688 7.04445313 2.15234375 7.03515625 C1.44207031 7.02355469 0.73179688 7.01195312 0 7 C0 4.69 0 2.38 0 0 Z " fill="#1F2A3F" transform="translate(26,19)"/>
<path d="M0 0 C2.07372063 0.76653602 4.02258431 1.57379216 6 2.5625 C5.67 3.2225 5.34 3.8825 5 4.5625 C-1.93 3.9025 -8.86 3.2425 -16 2.5625 C-16.33 1.5725 -16.66 0.5825 -17 -0.4375 C-11.89193896 -2.99153052 -5.21343213 -1.73217761 0 0 Z " fill="#23304E" transform="translate(227,29.4375)"/>
<path d="M0 0 C2.45873768 0.14058476 4.91685175 0.28722999 7.375 0.4375 C8.07367188 0.47681641 8.77234375 0.51613281 9.4921875 0.55664062 C14.7734375 0.88671875 14.7734375 0.88671875 17 2 C17 2.66 17 3.32 17 4 C14.44080818 5.27959591 12.54515972 5.16816536 9.6875 5.1875 C8.27017578 5.20876953 8.27017578 5.20876953 6.82421875 5.23046875 C3.85593118 4.98824335 1.69132835 4.24026607 -1 3 C-0.67 2.01 -0.34 1.02 0 0 Z " fill="#222E4B" transform="translate(209,43)"/>
</svg>
