<?xml version="1.0" standalone="no"?>
<!DOCTYPE svg PUBLIC "-//W3C//DTD SVG 20010904//EN"
 "http://www.w3.org/TR/2001/REC-SVG-20010904/DTD/svg10.dtd">
<svg version="1.0" xmlns="http://www.w3.org/2000/svg"
 width="500.000000pt" height="500.000000pt" viewBox="0 0 500.000000 500.000000"
 preserveAspectRatio="xMidYMid meet">

<g transform="translate(0.000000,500.000000) scale(0.100000,-0.100000)"
fill="#000000" stroke="none">
<path d="M1092 2671 c3 -269 3 -269 27 -295 26 -28 77 -42 116 -32 19 5 25 13
25 34 0 34 -10 49 -35 53 -19 4 -20 14 -25 254 l-5 250 -53 3 -53 3 3 -270z"/>
<path d="M4150 2640 l0 -290 50 0 50 0 0 90 c0 50 4 90 9 90 5 0 39 -40 76
-90 l67 -90 50 0 c61 0 62 -2 -31 124 -39 53 -71 98 -71 102 0 3 29 43 65 89
36 45 65 86 65 89 0 3 -22 6 -48 6 -48 0 -48 0 -105 -75 -32 -41 -62 -75 -68
-75 -5 0 -9 66 -9 160 l0 160 -50 0 -50 0 0 -290z"/>
<path d="M560 2625 l0 -275 153 0 c139 0 157 2 197 23 64 32 84 65 85 137 0
66 -19 102 -72 130 l-30 16 28 32 c55 61 44 151 -23 192 -29 18 -50 20 -185
20 l-153 0 0 -275z m268 179 c26 -18 30 -74 7 -98 -19 -19 -68 -29 -120 -24
l-40 3 -3 68 -3 67 68 0 c46 0 76 -5 91 -16z m32 -224 c14 -14 20 -33 20 -64
0 -63 -21 -76 -127 -76 l-83 0 0 80 0 80 85 0 c72 0 88 -3 105 -20z"/>
<path d="M2650 2624 l0 -276 158 4 c172 4 202 13 245 70 27 37 34 116 13 157
-14 27 -58 63 -90 74 -4 1 9 20 29 40 35 35 37 40 33 87 -10 99 -54 120 -248
120 l-140 0 0 -276z m270 181 c13 -12 20 -31 20 -56 0 -53 -26 -69 -112 -69
l-68 0 0 76 0 77 70 -5 c48 -4 77 -11 90 -23z m33 -224 c30 -30 29 -93 -1
-123 -19 -20 -35 -24 -107 -27 l-85 -3 0 92 0 93 86 -6 c70 -4 90 -9 107 -26z"/>
<path d="M2075 2794 c-13 -31 -17 -34 -42 -27 -43 12 -118 6 -152 -11 -79 -41
-94 -151 -30 -214 30 -29 30 -30 10 -37 -48 -15 -63 -85 -25 -116 11 -9 8 -15
-19 -33 -66 -45 -58 -119 17 -159 60 -32 213 -31 273 1 77 40 98 133 45 193
-26 29 -34 32 -132 43 -95 10 -105 13 -105 31 0 17 9 21 60 26 74 7 120 30
145 72 24 39 25 78 4 123 -16 34 -16 35 10 61 14 14 26 34 26 44 0 11 -1 19
-3 19 -1 0 -17 4 -35 9 -31 9 -33 8 -47 -25z m-51 -116 c34 -49 7 -108 -49
-108 -58 0 -86 69 -45 110 27 27 75 26 94 -2z m-19 -338 c44 0 56 -4 65 -20 9
-17 6 -25 -14 -45 -21 -21 -35 -25 -81 -25 -46 0 -60 4 -80 24 -16 16 -22 31
-19 41 8 19 43 36 62 29 8 -2 38 -4 67 -4z"/>
<path d="M1465 2771 c-101 -26 -155 -99 -155 -210 0 -71 19 -122 59 -162 102
-102 286 -66 337 66 25 66 15 172 -20 225 -42 64 -143 101 -221 81z m112 -101
c12 0 33 -70 33 -110 0 -92 -44 -139 -118 -125 -63 12 -93 115 -58 200 17 39
62 57 111 43 16 -4 31 -8 32 -8z"/>
<path d="M2345 2773 c-99 -26 -142 -102 -101 -181 17 -33 38 -45 131 -75 48
-15 71 -28 73 -40 6 -29 -17 -47 -60 -47 -38 0 -98 26 -98 42 0 19 -30 5 -55
-24 l-27 -32 32 -28 c60 -50 177 -61 250 -23 64 33 81 131 32 185 -20 24 -47
37 -107 53 -69 19 -80 26 -83 46 -2 13 2 28 10 32 21 14 76 10 110 -7 29 -15
31 -15 59 12 32 30 28 44 -21 69 -30 16 -115 26 -145 18z"/>
<path d="M3275 2756 c-17 -7 -45 -29 -62 -49 -86 -98 -61 -280 47 -334 52 -27
142 -31 193 -9 39 16 82 61 96 99 29 75 4 215 -45 259 -51 45 -165 62 -229 34z
m152 -90 c25 -21 28 -31 31 -100 4 -73 3 -76 -26 -106 -40 -39 -101 -42 -136
-7 -39 39 -46 154 -13 198 34 44 101 52 144 15z"/>
<path d="M3755 2751 c-73 -33 -105 -93 -105 -193 1 -97 43 -171 113 -197 47
-18 143 -13 187 9 134 68 132 314 -3 379 -55 26 -137 27 -192 2z m138 -73 c32
-17 45 -38 53 -85 15 -98 -23 -163 -95 -163 -64 0 -93 32 -99 109 -5 68 9 114
42 136 25 18 69 19 99 3z"/>
</g>
</svg>
